<?xml version="1.0" standalone="no"?><!DOCTYPE svg PUBLIC "-//W3C//DTD SVG 1.1//EN" "http://www.w3.org/Graphics/SVG/1.1/DTD/svg11.dtd"><svg t="1693735577469" class="icon" viewBox="0 0 1024 1024" version="1.1" xmlns="http://www.w3.org/2000/svg" p-id="19365" xmlns:xlink="http://www.w3.org/1999/xlink" width="200" height="200"><path d="M60.235294 301.176471v90.352941h283.708235a225.28 225.28 0 0 1 336.112942 0H963.764706v-90.352941zM680.056471 391.529412a225.882353 225.882353 0 1 1-336.112942 0H180.705882v421.647059a60.235294 60.235294 0 0 0 60.235294 60.235294h542.117648a60.235294 60.235294 0 0 0 60.235294-60.235294V391.529412z" fill="#FFC824" p-id="19366"></path><path d="M512 542.117647m-105.411765 0a105.411765 105.411765 0 1 0 210.82353 0 105.411765 105.411765 0 1 0-210.82353 0Z" fill="#FFC824" p-id="19367"></path><path d="M206.607059 843.294118H154.804706a30.117647 30.117647 0 0 1 51.802353 0zM327.077647 843.294118H275.275294a30.117647 30.117647 0 0 1 51.802353 0zM963.764706 707.764706a30.117647 30.117647 0 0 0-30.117647 30.117647v30.117647a30.117647 30.117647 0 0 0 60.235294 0v-30.117647a30.117647 30.117647 0 0 0-30.117647-30.117647z" fill="#6B400D" p-id="19368"></path><path d="M873.411765 90.352941H421.647059V60.235294a60.235294 60.235294 0 0 0-60.235294-60.235294H240.941176a60.235294 60.235294 0 0 0-60.235294 60.235294v30.117647H150.588235a120.470588 120.470588 0 0 0-120.470588 120.470588v692.705883a120.470588 120.470588 0 0 0 120.470588 120.470588h722.82353a120.470588 120.470588 0 0 0 120.470588-120.470588v-30.117647a30.117647 30.117647 0 0 0-60.235294 0v30.117647a60.235294 60.235294 0 0 1-60.235294 60.235294H150.588235a60.235294 60.235294 0 0 1-60.235294-60.235294V421.647059h195.764706a253.289412 253.289412 0 0 0-30.117647 120.470588 256 256 0 0 0 512 0 253.289412 253.289412 0 0 0-30.117647-120.470588H933.647059v165.647059a30.117647 30.117647 0 0 0 60.235294 0V210.823529a120.470588 120.470588 0 0 0-120.470588-120.470588zM240.941176 60.235294h120.470589v30.117647H240.941176z m271.058824 677.345882A195.463529 195.463529 0 1 1 707.463529 542.117647 195.162353 195.162353 0 0 1 512 737.581176zM933.647059 361.411765h-240.941177a256 256 0 0 0-361.411764 0H90.352941V210.823529a60.235294 60.235294 0 0 1 60.235294-60.235294h722.82353a60.235294 60.235294 0 0 1 60.235294 60.235294z" fill="#6B400D" p-id="19369"></path><path d="M512 406.588235a135.529412 135.529412 0 1 0 135.529412 135.529412 135.830588 135.830588 0 0 0-135.529412-135.529412z m0 210.82353a75.294118 75.294118 0 1 1 75.294118-75.294118 75.294118 75.294118 0 0 1-75.294118 75.294118zM180.705882 828.235294a30.117647 30.117647 0 0 0-25.901176 14.757647 30.117647 30.117647 0 0 0-4.216471 15.36v30.117647a30.117647 30.117647 0 0 0 60.235294 0v-30.117647a30.117647 30.117647 0 0 0-4.21647-15.058823 30.117647 30.117647 0 0 0-25.901177-15.058824zM301.176471 828.235294a30.117647 30.117647 0 0 0-25.901177 14.757647 30.117647 30.117647 0 0 0-4.21647 15.36v30.117647a30.117647 30.117647 0 0 0 60.235294 0v-30.117647a30.117647 30.117647 0 0 0-4.216471-15.058823 30.117647 30.117647 0 0 0-25.901176-15.058824zM843.294118 195.764706h-82.82353a30.117647 30.117647 0 0 0 0 60.235294H843.294118a30.117647 30.117647 0 0 0 0-60.235294z" fill="#6B400D" p-id="19370"></path></svg>